<?xml version="1.0" encoding="UTF-8" standalone="no"?>
<!-- Created with Inkscape (http://www.inkscape.org/) -->

<svg
   width="129.32254mm"
   height="45.813438mm"
   viewBox="0 0 129.32254 45.813438"
   version="1.1"
   id="svg1"
   xml:space="preserve"
   inkscape:version="1.4.3 (fcd0343856, 2026-01-01)"
   sodipodi:docname="chama_ja.svg"
   xmlns:inkscape="http://www.inkscape.org/namespaces/inkscape"
   xmlns:sodipodi="http://sodipodi.sourceforge.net/DTD/sodipodi-0.dtd"
   xmlns="http://www.w3.org/2000/svg"
   xmlns:svg="http://www.w3.org/2000/svg"><sodipodi:namedview
     id="namedview1"
     pagecolor="#ffffff"
     bordercolor="#000000"
     borderopacity="0.25"
     inkscape:showpageshadow="2"
     inkscape:pageopacity="0.0"
     inkscape:pagecheckerboard="0"
     inkscape:deskcolor="#d1d1d1"
     inkscape:document-units="mm"
     inkscape:zoom="0.64"
     inkscape:cx="95.3125"
     inkscape:cy="351.5625"
     inkscape:window-width="1920"
     inkscape:window-height="960"
     inkscape:window-x="0"
     inkscape:window-y="0"
     inkscape:window-maximized="1"
     inkscape:current-layer="layer1"
     showgrid="false"
     showguides="true"><sodipodi:guide
       position="-32.070492,-18.021023"
       orientation="1,0"
       id="guide27"
       inkscape:locked="false" /><inkscape:page
       x="1.1064725e-20"
       y="0"
       width="129.32256"
       height="45.813438"
       id="page2"
       margin="0"
       bleed="0" /></sodipodi:namedview><defs
     id="defs1"><inkscape:path-effect
       effect="fillet_chamfer"
       id="path-effect4"
       is_visible="true"
       lpeversion="1"
       nodesatellites_param="F,0,0,1,0,0,0,1 @ F,0,0,1,0,3.5811491,0,1 @ F,0,0,1,0,4.5691252,0,1 @ F,0,0,1,0,0,0,1"
       radius="0"
       unit="px"
       method="auto"
       mode="F"
       chamfer_steps="1"
       flexible="false"
       use_knot_distance="true"
       apply_no_radius="true"
       apply_with_radius="true"
       only_selected="false"
       hide_knots="false" /></defs><g
     inkscape:label="Layer 1"
     inkscape:groupmode="layer"
     id="layer1"
     transform="translate(-40.752131,-14.713722)"><g
       id="g31"
       inkscape:export-filename="g31.png"
       inkscape:export-xdpi="96"
       inkscape:export-ydpi="96"><rect
         style="font-variation-settings:'wght' 700;fill:#ffffff;fill-opacity:1;stroke:#cccccc;stroke-width:1.00385;stroke-dasharray:none"
         id="rect30"
         width="128.31871"
         height="44.809589"
         x="41.254059"
         y="15.215647"
         rx="24.617754"
         ry="22.404795" /><g
         id="path20"
         transform="matrix(1.0896787,0,0,0.96830863,43.207074,9.1872268)"><path
           style="font-variation-settings:'wght' 700;baseline-shift:baseline;display:inline;overflow:visible;vector-effect:none;fill:#d40000;enable-background:accumulate;stop-color:#000000;stop-opacity:1"
           d="M 16.2264,23.357747 29.248862,15.502929"
           id="path21" /><path
           style="font-variation-settings:'wght' 700;baseline-shift:baseline;display:inline;overflow:visible;vector-effect:none;fill:#e76c2c;fill-opacity:1;enable-background:accumulate;stop-color:#000000;stop-opacity:1"
           d="m 28.947266,15.003906 -12.801379,8.278652 0.269598,1.585092 13.133343,-8.865697 z"
           id="path22"
           sodipodi:nodetypes="ccccc" /></g><g
         id="path20-3"
         transform="matrix(-1.1192054,0.20230484,0.15532662,0.85930912,93.774165,25.844295)"><path
           style="font-variation-settings:'wght' 700;baseline-shift:baseline;display:inline;overflow:visible;vector-effect:none;fill:#d40000;enable-background:accumulate;stop-color:#000000;stop-opacity:1"
           d="M 16.2264,23.357747 29.248862,15.502929"
           id="path21-5" /><path
           style="font-variation-settings:'wght' 700;baseline-shift:baseline;display:inline;overflow:visible;vector-effect:none;fill:#e76c2c;fill-opacity:1;enable-background:accumulate;stop-color:#000000;stop-opacity:1"
           d="m 29.229549,15.208067 -13.654906,6.21 0.601563,0.998047 12.927136,-5.798115 z"
           id="path22-6"
           sodipodi:nodetypes="ccccc" /></g><path
         id="path25"
         style="font-variation-settings:'wght' 700;fill:#9bc536;fill-opacity:1;stroke-width:0.189858"
         d="m 86.518569,20.13667 c 1.802266,0.04703 4.837439,0.06607 6.603664,-0.787277 -0.1304,1.829042 -1.26075,4.63155 -0.967495,6.535356 l -1.043776,-0.960635 c -4.422702,4.616451 -9.863322,9.39775 -12.857571,8.501695 0.05949,-0.423758 0.495962,-2.949264 -0.541951,-4.430312 3.822698,-0.556388 9.157439,-6.044418 9.840386,-7.919817 z"
         sodipodi:nodetypes="cccccccc"
         inkscape:transform-center-x="0.11170223"
         inkscape:transform-center-y="0.41341146" /><g
         id="g4"
         transform="translate(44.360955,7.0496659)"><rect
           style="font-variation-settings:'wght' 700;fill:#e76c2c;fill-opacity:1;stroke-width:0.264583"
           id="rect1"
           width="4.0194831"
           height="30.621153"
           x="25.257353"
           y="20.213726"
           rx="2.0097415"
           ry="2.0097415"
           transform="rotate(-11.925737)" /><path
           style="font-variation-settings:'wght' 700;fill:#e76c2c;fill-opacity:1;stroke-width:0.264583"
           id="rect2"
           width="13.593162"
           height="16.662584"
           x="2.0462825"
           y="26.893997"
           rx="0"
           ry="0"
           sodipodi:type="rect"
           transform="matrix(-0.74009999,0.15241352,-0.17806882,-0.86467873,25.744469,62.011598)"
           d="M 2.0462825,26.893997 H 12.058295 a 3.5811491,3.5811491 45 0 1 3.581149,3.581149 v 8.51231 a 4.5691252,4.5691252 135 0 1 -4.569125,4.569125 H 2.0462825 Z"
           inkscape:path-effect="#path-effect4" /></g><g
         id="g26"
         transform="translate(44.61674,8.4016739)"><path
           id="path19"
           d="m 6.9909022,28.284054 1.3761027,8.104287 C 3.1094347,36.584727 1.9894476,30.803434 6.9909022,28.284054 Z"
           style="font-variation-settings:'wght' 700;fill:#194478;fill-opacity:1;stroke-width:0.2161"
           sodipodi:nodetypes="ccc" /><path
           id="rect20"
           style="font-variation-settings:'wght' 700;fill:#62a0ba;fill-opacity:1;stroke-width:0.264583"
           d="m 12.136171,39.105955 5.883063,-1.169304 4.092564,7.710101 c -1.338523,1.270182 -2.918198,2.130406 -5.225328,1.753956 z"
           sodipodi:nodetypes="ccccc" /><g
           id="g25"><g
             id="g17"
             transform="translate(-0.10335287,-2.1704102)"><path
               id="rect2-5"
               d="m 22.288185,29.665747 -3.071891,1.166517 c -0.345776,-2.492993 1.838501,-3.391057 3.071891,-1.166517 z"
               style="font-variation-settings:'wght' 700;fill:#194478;fill-opacity:1;stroke-width:0.0937003"
               sodipodi:nodetypes="ccc" /><path
               id="path16"
               d="m 20.043929,32.877893 8.101406,-1.392958 c 0.207323,5.25715 -5.571627,6.389161 -8.101406,1.392958 z"
               style="font-variation-settings:'wght' 700;fill:#194478;fill-opacity:1;stroke-width:0.2161"
               sodipodi:nodetypes="ccc" /><path
               id="path17"
               d="m 28.463573,28.204117 -3.071891,1.166517 c -0.345776,-2.492993 1.838501,-3.391057 3.071891,-1.166517 z"
               style="font-variation-settings:'wght' 700;fill:#194478;fill-opacity:1;stroke-width:0.0937003"
               sodipodi:nodetypes="ccc" /></g><path
             id="path24"
             d="m 23.543789,33.821066 c 0.871777,0.24312 2.36116,0.04246 3.229651,-0.865812 -0.511639,-1.557105 -2.897481,-0.977781 -3.229651,0.865812 z"
             style="font-variation-settings:'wght' 700;fill:#e76c2c;fill-opacity:1;stroke-width:0.0745749"
             sodipodi:nodetypes="ccc" /></g></g><path
         d="m 146.81965,37.842279 q -0.85891,0 -1.53257,-0.269464 -0.67366,-0.269464 -1.14523,-0.757867 -0.47156,-0.488404 -0.72418,-1.111539 -0.25262,-0.639977 -0.25262,-1.364162 v -0.185256 q 0,-0.471562 0.33683,-0.808392 0.35367,-0.353671 0.82523,-0.353671 0.47156,0 0.77471,0.353671 0.30315,0.33683 0.30315,0.808392 v 0.134732 q 0,0.437879 0.15157,0.741026 0.16841,0.286305 0.47156,0.45472 0.30315,0.151574 0.6905,0.151574 0.6905,0 0.99365,-0.437879 0.31999,-0.454721 0.31999,-1.195747 v -7.208161 q 0,-0.488404 0.33683,-0.825234 0.33683,-0.33683 0.82523,-0.33683 0.47157,0 0.8084,0.33683 0.35367,0.33683 0.35367,0.825234 v 7.107112 q 0,1.212588 -0.42104,2.105188 -0.42104,0.875758 -1.21259,1.364161 -0.77471,0.471562 -1.90309,0.471562 z m 8.55546,0 q -0.77471,0 -1.46521,-0.303147 -0.67366,-0.303147 -1.11154,-0.875758 -0.42104,-0.589452 -0.42104,-1.448369 0,-1.229429 0.79155,-1.91993 0.80839,-0.707343 2.59359,-0.976807 0.57261,-0.08421 1.02733,-0.151574 0.45473,-0.08421 0.72419,-0.235781 0.2863,-0.168415 0.2863,-0.522086 0,-0.252623 -0.15157,-0.454721 -0.13473,-0.202098 -0.40419,-0.303147 -0.26947,-0.11789 -0.67366,-0.11789 -0.52209,0 -0.85892,0.202098 -0.33683,0.202098 -0.55577,0.471562 -0.21894,0.235781 -0.4884,0.387354 -0.26947,0.134732 -0.62314,0.134732 -0.47156,0 -0.75787,-0.235781 -0.26946,-0.252622 -0.26946,-0.67366 0,-0.421037 0.26946,-0.79155 0.26947,-0.387355 0.74103,-0.690502 0.4884,-0.303147 1.12838,-0.471562 0.63998,-0.185256 1.381,-0.185256 1.14522,0 1.91993,0.421037 0.77471,0.404196 1.16207,1.145222 0.40419,0.741026 0.40419,1.700992 v 3.334616 q 0,0.21894 0.0505,0.303147 0.0505,0.06737 0.2021,0.117891 0.26946,0.101049 0.50524,0.33683 0.23578,0.235781 0.23578,0.639977 0,0.45472 -0.33683,0.774709 -0.31999,0.319988 -0.94312,0.303147 -0.6905,-0.01684 -1.07786,-0.33683 -0.37051,-0.33683 -0.47156,-0.875758 l -0.0168,-0.117891 h -0.0505 q -0.45472,0.690502 -1.07785,1.061015 -0.62314,0.353671 -1.66731,0.353671 z m 0.4884,-1.903089 q 0.53893,0 0.97681,-0.21894 0.43788,-0.218939 0.6905,-0.623135 0.26946,-0.404196 0.26946,-0.959966 v -0.589452 q 0,-0.05053 -0.0337,-0.05053 -0.0168,0 -0.0674,0.03368 -0.2021,0.134732 -0.48841,0.202098 -0.2863,0.06737 -0.60629,0.117891 -0.30315,0.03368 -0.62314,0.11789 -0.77471,0.151574 -1.07785,0.404196 -0.28631,0.252623 -0.28631,0.639977 0,0.421038 0.30315,0.67366 0.31999,0.252623 0.94312,0.252623 z m -0.0842,-7.966029 q -0.33683,0 -0.63997,-0.252623 -0.28631,-0.269464 -0.28631,-0.690501 0,-0.353672 0.16842,-0.623136 l 0.90944,-1.381003 q 0.21894,-0.319988 0.52208,-0.471562 0.30315,-0.151573 0.58946,-0.11789 0.42103,0.01684 0.70734,0.33683 0.30315,0.319988 0.30315,0.757867 0,0.185257 -0.0842,0.404196 -0.0842,0.202098 -0.28631,0.421038 l -1.09469,1.246271 q -0.35367,0.370513 -0.8084,0.370513 z"
         id="text1-3"
         style="font-weight:bold;font-size:16.8415px;font-family:'National Park';-inkscape-font-specification:'National Park, Bold';fill:#f26f23;stroke-width:0.264583"
         aria-label="Já" /><path
         d="m 87.555779,48.459669 q -1.062603,0 -1.87913,-0.503339 -0.805342,-0.514524 -1.275124,-1.442903 -0.458598,-0.92838 -0.458598,-2.192319 0,-0.90601 0.257262,-1.644239 0.268447,-0.73823 0.727045,-1.275125 0.458597,-0.536894 1.084974,-0.816526 0.637562,-0.290818 1.364606,-0.290818 0.469783,0 0.92838,0.123038 0.458598,0.111853 0.827713,0.335559 0.369114,0.212521 0.59282,0.536894 0.234892,0.313189 0.257262,0.71586 0.02237,0.313188 -0.167779,0.525709 -0.178965,0.201335 -0.503339,0.201335 -0.257262,0 -0.425041,-0.123038 -0.16778,-0.134224 -0.279633,-0.324374 -0.134223,-0.257262 -0.369114,-0.436227 -0.234892,-0.178964 -0.727045,-0.178964 -0.592821,0 -1.051418,0.313188 -0.458597,0.302003 -0.715859,0.894824 -0.246077,0.592821 -0.246077,1.47646 0,0.816527 0.257262,1.431718 0.257262,0.604006 0.715859,0.939565 0.469783,0.335559 1.09616,0.335559 0.391485,0 0.693488,-0.134223 0.313189,-0.134224 0.514524,-0.346745 v -1.219197 h -0.559265 q -0.324374,0 -0.592821,-0.201336 -0.257262,-0.201335 -0.257262,-0.514524 0,-0.313188 0.268447,-0.514523 0.268448,-0.201336 0.592821,-0.19015 l 1.420533,0.01119 q 0.346745,0.01118 0.514524,0.19015 0.16778,0.178965 0.16778,0.514524 v 2.04691 q 0,0.156594 -0.03356,0.268447 -0.02237,0.111853 -0.100668,0.212521 -0.413856,0.581635 -1.073789,0.928379 -0.659932,0.346745 -1.565942,0.346745 z m 6.655239,0 q -0.805342,0 -1.442904,-0.369115 -0.626377,-0.3803 -0.995492,-1.051418 -0.357929,-0.682304 -0.357929,-1.599498 0,-0.861268 0.324374,-1.554757 0.335559,-0.704674 0.939565,-1.107345 0.615191,-0.413856 1.454089,-0.413856 0.626377,0 1.11853,0.234892 0.503338,0.234891 0.850083,0.615191 0.346744,0.3803 0.525709,0.827712 0.178964,0.447412 0.178964,0.883639 0,0.425041 -0.21252,0.671118 -0.201336,0.246077 -0.671118,0.246077 h -2.964105 q 0.0783,0.447412 0.279633,0.738229 0.201335,0.279633 0.480968,0.413856 0.290817,0.134224 0.637562,0.134224 0.369115,0 0.592821,-0.145409 0.223706,-0.145409 0.40267,-0.346744 0.111853,-0.111853 0.246077,-0.201336 0.145409,-0.100667 0.369115,-0.100667 0.290818,0 0.480968,0.19015 0.19015,0.178965 0.19015,0.503338 0,0.268448 -0.19015,0.525709 -0.178965,0.246077 -0.514524,0.458598 -0.324374,0.201335 -0.7606,0.324373 -0.436227,0.123039 -0.961936,0.123039 z m -1.252754,-3.646408 h 2.360099 q -0.0783,-0.559265 -0.391486,-0.838898 -0.302003,-0.290817 -0.782971,-0.290817 -0.469783,0 -0.782971,0.279632 -0.313188,0.268447 -0.402671,0.850083 z m 7.180946,3.679964 q -0.749417,0 -1.297497,-0.234892 -0.548079,-0.234891 -0.838897,-0.581635 -0.290818,-0.346745 -0.302003,-0.659933 0,-0.246077 0.178965,-0.458597 0.178964,-0.223706 0.525709,-0.223706 0.257262,0 0.413856,0.100667 0.156594,0.100668 0.223706,0.190151 0.279632,0.313188 0.57045,0.469782 0.290818,0.145409 0.637561,0.145409 0.36912,0 0.5369,-0.145409 0.16778,-0.145409 0.16778,-0.357929 0,-0.178965 -0.13423,-0.302004 -0.13422,-0.134223 -0.3803,-0.234891 -0.24608,-0.111853 -0.604005,-0.223706 -0.369115,-0.123038 -0.727044,-0.257262 -0.346745,-0.145409 -0.626377,-0.346744 -0.268447,-0.212521 -0.425042,-0.503339 -0.156594,-0.302003 -0.156594,-0.727044 0,-0.514524 0.268447,-0.917195 0.279633,-0.413856 0.771786,-0.648747 0.492153,-0.234891 1.129719,-0.234891 0.62637,0 1.08497,0.21252 0.46978,0.201336 0.73823,0.525709 0.26845,0.313189 0.26845,0.671118 0,0.268448 -0.14541,0.447412 -0.14541,0.178965 -0.44741,0.178965 -0.25727,0 -0.43623,-0.111853 -0.16778,-0.111853 -0.26845,-0.223706 -0.0783,-0.100667 -0.19015,-0.201335 -0.10067,-0.100668 -0.25726,-0.16778 -0.14541,-0.0783 -0.39148,-0.0783 -0.335564,0 -0.492158,0.134224 -0.156594,0.134223 -0.156594,0.324374 0,0.201335 0.145409,0.324373 0.156594,0.123039 0.458597,0.234892 0.313186,0.100667 0.782966,0.268447 0.39149,0.134223 0.69349,0.302003 0.31319,0.156594 0.52571,0.357929 0.22371,0.201336 0.33556,0.458598 0.12304,0.257262 0.12304,0.604006 0,0.536894 -0.27963,0.973121 -0.26845,0.425041 -0.78297,0.671118 -0.51453,0.246077 -1.24157,0.246077 z m 5.49757,-0.08948 q -0.53689,0 -0.906,-0.223706 -0.36912,-0.234891 -0.55927,-0.615191 -0.17896,-0.3803 -0.17896,-0.816527 V 42.03931 q 0,-0.302004 0.21252,-0.514524 0.21252,-0.223706 0.52571,-0.223706 0.302,0 0.51452,0.223706 0.22371,0.21252 0.22371,0.514524 v 4.608343 q 0,0.134224 0.0447,0.223706 0.0447,0.0783 0.14541,0.0783 0.10066,0 0.17896,-0.05593 0.0895,-0.06711 0.20134,-0.111853 0.11185,-0.05593 0.26844,-0.05593 0.31319,0 0.52571,0.212521 0.21252,0.212521 0.21252,0.536894 0,0.302003 -0.21252,0.514524 -0.21252,0.212521 -0.53689,0.313188 -0.32438,0.100668 -0.65994,0.100668 z m -1.83438,-4.574787 q -0.27964,0 -0.46979,-0.190151 -0.19015,-0.19015 -0.19015,-0.458597 0,-0.268447 0.19015,-0.458597 0.19015,-0.19015 0.46979,-0.19015 h 2.69565 q 0.26845,0 0.4586,0.19015 0.19015,0.19015 0.19015,0.458597 0,0.268447 -0.19015,0.458597 -0.19015,0.190151 -0.4586,0.190151 z m 6.2302,4.630714 q -0.51452,0 -0.97312,-0.201336 -0.44741,-0.201335 -0.73823,-0.581635 -0.27963,-0.391486 -0.27963,-0.961936 0,-0.816527 0.52571,-1.275124 0.53689,-0.469783 1.72253,-0.648748 0.3803,-0.05593 0.68231,-0.100667 0.302,-0.05593 0.48096,-0.156595 0.19015,-0.111853 0.19015,-0.346744 0,-0.167779 -0.10066,-0.302003 -0.0895,-0.134224 -0.26845,-0.201335 -0.17897,-0.0783 -0.44741,-0.0783 -0.34675,0 -0.57045,0.134223 -0.22371,0.134224 -0.36912,0.313189 -0.14541,0.156594 -0.32437,0.257261 -0.17897,0.08948 -0.41386,0.08948 -0.31319,0 -0.50334,-0.156594 -0.17896,-0.16778 -0.17896,-0.447412 0,-0.279633 0.17896,-0.525709 0.17897,-0.257262 0.49216,-0.458598 0.32437,-0.201335 0.74941,-0.313188 0.42504,-0.123038 0.9172,-0.123038 0.7606,0 1.27512,0.279632 0.51452,0.268447 0.77179,0.7606 0.26844,0.492154 0.26844,1.129716 V 46.7595 q 0,0.145409 0.0336,0.201336 0.0336,0.04474 0.13422,0.0783 0.17897,0.06711 0.33556,0.223706 0.1566,0.156594 0.1566,0.425041 0,0.302003 -0.22371,0.514524 -0.21252,0.21252 -0.62638,0.201335 -0.45859,-0.01119 -0.71586,-0.223706 -0.24607,-0.223706 -0.31318,-0.581635 l -0.0112,-0.0783 h -0.0335 q -0.30201,0.458598 -0.71586,0.704674 -0.41386,0.234892 -1.10735,0.234892 z m 0.32437,-1.263939 q 0.35793,0 0.64875,-0.145409 0.29082,-0.145409 0.4586,-0.413856 0.17896,-0.268447 0.17896,-0.637562 V 45.60742 q 0,-0.03356 -0.0224,-0.03356 -0.0112,0 -0.0447,0.02237 -0.13422,0.08948 -0.32437,0.134224 -0.19015,0.04474 -0.40267,0.0783 -0.20134,0.02237 -0.41386,0.0783 -0.51452,0.100667 -0.71586,0.268447 -0.19015,0.167779 -0.19015,0.425041 0,0.279633 0.20134,0.447412 0.21252,0.16778 0.62637,0.16778 z m -1.02904,-5.59265 q -0.27964,0 -0.4586,-0.19015 -0.16778,-0.201336 -0.15659,-0.503339 0.0112,-0.290818 0.19015,-0.514524 0.19015,-0.234891 0.49215,-0.3803 0.31319,-0.145409 0.6823,-0.145409 0.29082,0 0.49216,0.08948 0.21252,0.0783 0.35793,0.19015 0.1454,0.100668 0.25726,0.178965 0.11185,0.0783 0.2237,0.0783 0.11186,0 0.16778,-0.04474 0.0559,-0.04474 0.11186,-0.134224 0.0783,-0.111853 0.19015,-0.178965 0.11185,-0.0783 0.302,-0.0783 0.26845,0 0.43623,0.201335 0.17896,0.190151 0.16777,0.492154 -0.0112,0.290817 -0.19015,0.525709 -0.17896,0.223706 -0.48096,0.369115 -0.30201,0.134223 -0.68231,0.134223 -0.29081,0 -0.50333,-0.0783 -0.20134,-0.0783 -0.34675,-0.178965 -0.14541,-0.111853 -0.26845,-0.19015 -0.11185,-0.08948 -0.2237,-0.08948 -0.10067,0.01119 -0.16778,0.05593 -0.0559,0.04474 -0.11185,0.145409 -0.0783,0.08948 -0.19015,0.16778 -0.11186,0.0783 -0.29082,0.0783 z m 7.96392,6.856589 q -0.8389,0 -1.47646,-0.391486 -0.63756,-0.402671 -0.99549,-1.096159 -0.34675,-0.704674 -0.34675,-1.577127 0,-0.861269 0.34675,-1.543572 0.35793,-0.682303 0.99549,-1.084974 0.63756,-0.402671 1.47646,-0.402671 0.85008,0 1.48764,0.402671 0.63756,0.402671 0.98431,1.084974 0.35793,0.682303 0.35793,1.543572 0,0.872453 -0.35793,1.577127 -0.34675,0.693488 -0.98431,1.096159 -0.63756,0.391486 -1.48764,0.391486 z m 0,-1.364607 q 0.61519,0 0.95075,-0.425041 0.34674,-0.436227 0.34674,-1.275124 0,-0.805342 -0.34674,-1.241569 -0.33556,-0.436226 -0.95075,-0.436226 -0.61519,0 -0.95075,0.436226 -0.33556,0.436227 -0.33556,1.241569 0,0.838897 0.33556,1.275124 0.33556,0.425041 0.95075,0.425041 z m 9.30615,1.364607 q -0.74941,0 -1.30868,-0.380301 -0.55926,-0.391485 -0.88364,-1.084974 -0.31318,-0.693488 -0.31318,-1.599497 0,-0.894824 0.31318,-1.565942 0.32438,-0.682304 0.88364,-1.073789 0.57045,-0.391486 1.2975,-0.391486 0.41385,0 0.74941,0.123039 0.33556,0.111853 0.60401,0.335559 0.26845,0.223706 0.48097,0.548079 l -0.23489,0.111853 v -2.61736 q 0,-0.313188 0.21252,-0.525709 0.21252,-0.212521 0.52571,-0.212521 0.32437,0 0.53689,0.212521 0.21252,0.212521 0.21252,0.525709 v 6.778292 q 0,0.324373 -0.21252,0.548079 -0.21252,0.212521 -0.53689,0.212521 -0.31319,0 -0.5369,-0.257262 -0.21252,-0.268447 -0.20133,-0.659932 l 0.0112,-0.35793 0.25726,-0.02237 q -0.11185,0.335559 -0.36911,0.648748 -0.24608,0.302003 -0.62638,0.503338 -0.36911,0.201336 -0.86127,0.201336 z m 0.34675,-1.342236 q 0.58163,-0.01119 0.92838,-0.447412 0.35793,-0.447412 0.35793,-1.252754 0,-0.782971 -0.34675,-1.241568 -0.33556,-0.469783 -0.95075,-0.469783 -0.61519,0 -0.97312,0.458598 -0.34674,0.458597 -0.34674,1.263938 0,0.794157 0.34674,1.241569 0.35793,0.447412 0.98431,0.447412 z m 6.75591,1.342236 q -0.80534,0 -1.4429,-0.369115 -0.62638,-0.3803 -0.99549,-1.051418 -0.35793,-0.682304 -0.35793,-1.599498 0,-0.861268 0.32437,-1.554757 0.33556,-0.704674 0.93957,-1.107345 0.61519,-0.413856 1.45408,-0.413856 0.62638,0 1.11853,0.234892 0.50334,0.234891 0.85009,0.615191 0.34674,0.3803 0.52571,0.827712 0.17896,0.447412 0.17896,0.883639 0,0.425041 -0.21252,0.671118 -0.20134,0.246077 -0.67112,0.246077 h -2.9641 q 0.0783,0.447412 0.27963,0.738229 0.20134,0.279633 0.48097,0.413856 0.29082,0.134224 0.63756,0.134224 0.36912,0 0.59282,-0.145409 0.22371,-0.145409 0.40267,-0.346744 0.11185,-0.111853 0.24608,-0.201336 0.14541,-0.100667 0.36911,-0.100667 0.29082,0 0.48097,0.19015 0.19015,0.178965 0.19015,0.503338 0,0.268448 -0.19015,0.525709 -0.17896,0.246077 -0.51452,0.458598 -0.32438,0.201335 -0.7606,0.324373 -0.43623,0.123039 -0.96194,0.123039 z m -1.25275,-3.646408 h 2.3601 q -0.0783,-0.559265 -0.39149,-0.838898 -0.302,-0.290817 -0.78297,-0.290817 -0.46978,0 -0.78297,0.279632 -0.31319,0.268447 -0.40267,0.850083 z m 9.32851,3.590481 q -0.302,0 -0.52571,-0.212521 -0.2237,-0.223706 -0.2237,-0.525709 v -5.883467 q 0,-0.480968 0.19015,-0.861268 0.19015,-0.391486 0.55926,-0.615192 0.3803,-0.234891 0.9172,-0.234891 0.33556,0 0.65993,0.100667 0.32437,0.100668 0.5369,0.313189 0.2237,0.212521 0.2237,0.54808 0,0.302003 -0.19015,0.503338 -0.19015,0.19015 -0.50334,0.19015 -0.16778,0 -0.302,-0.05593 -0.12304,-0.05593 -0.21252,-0.100668 -0.0895,-0.05593 -0.19015,-0.05593 -0.12304,0 -0.16778,0.111853 -0.0336,0.111853 -0.0336,0.313189 v 5.726873 q 0,0.302003 -0.2237,0.525709 -0.21252,0.212521 -0.51453,0.212521 z m -1.09616,-4.574787 q -0.27963,0 -0.46978,-0.190151 -0.19015,-0.19015 -0.19015,-0.458597 0,-0.268447 0.19015,-0.458597 0.19015,-0.19015 0.46978,-0.19015 h 2.70685 q 0.27963,0 0.46978,0.19015 0.19015,0.19015 0.19015,0.458597 0,0.268447 -0.19015,0.458597 -0.19015,0.190151 -0.46978,0.190151 z m 4.73139,4.574787 q -0.31319,0 -0.5369,-0.223706 -0.21252,-0.223706 -0.21252,-0.525709 v -4.49649 q 0,-0.302004 0.21252,-0.514524 0.22371,-0.223706 0.5369,-0.223706 0.302,0 0.51452,0.223706 0.22371,0.21252 0.22371,0.514524 v 4.49649 q 0,0.302003 -0.22371,0.525709 -0.21252,0.223706 -0.51452,0.223706 z m -0.0112,-6.554586 q -0.34674,0 -0.57045,-0.223706 -0.22371,-0.223706 -0.22371,-0.637562 0,-0.40267 0.22371,-0.626376 0.22371,-0.234892 0.57045,-0.234892 0.36912,0 0.59282,0.234892 0.22371,0.223706 0.22371,0.626376 0,0.413856 -0.22371,0.637562 -0.2237,0.223706 -0.59282,0.223706 z m 3.05358,6.554586 q -0.31319,0 -0.52571,-0.212521 -0.21252,-0.223706 -0.21252,-0.548079 V 40.86485 q 0,-0.313188 0.21252,-0.525709 0.21252,-0.212521 0.52571,-0.212521 0.32438,0 0.5369,0.212521 0.21252,0.212521 0.21252,0.525709 v 6.778292 q 0,0.324373 -0.21252,0.548079 -0.21252,0.212521 -0.5369,0.212521 z m 3.97078,0.05593 q -0.51453,0 -0.97313,-0.201336 -0.44741,-0.201335 -0.73823,-0.581635 -0.27963,-0.391486 -0.27963,-0.961936 0,-0.816527 0.52571,-1.275124 0.5369,-0.469783 1.72254,-0.648748 0.3803,-0.05593 0.6823,-0.100667 0.302,-0.05593 0.48097,-0.156595 0.19015,-0.111853 0.19015,-0.346744 0,-0.167779 -0.10067,-0.302003 -0.0895,-0.134224 -0.26845,-0.201335 -0.17896,-0.0783 -0.44741,-0.0783 -0.34674,0 -0.57045,0.134223 -0.2237,0.134224 -0.36911,0.313189 -0.14541,0.156594 -0.32438,0.257261 -0.17896,0.08948 -0.41385,0.08948 -0.31319,0 -0.50334,-0.156594 -0.17897,-0.16778 -0.17897,-0.447412 0,-0.279633 0.17897,-0.525709 0.17896,-0.257262 0.49215,-0.458598 0.32437,-0.201335 0.74942,-0.313188 0.42504,-0.123038 0.91719,-0.123038 0.7606,0 1.27512,0.279632 0.51453,0.268447 0.77179,0.7606 0.26845,0.492154 0.26845,1.129716 v 2.214689 q 0,0.145409 0.0336,0.201336 0.0336,0.04474 0.13423,0.0783 0.17896,0.06711 0.33556,0.223706 0.15659,0.156594 0.15659,0.425041 0,0.302003 -0.22371,0.514524 -0.21252,0.21252 -0.62637,0.201335 -0.4586,-0.01119 -0.71586,-0.223706 -0.24608,-0.223706 -0.31319,-0.581635 l -0.0112,-0.0783 h -0.0335 q -0.302,0.458598 -0.71586,0.704674 -0.41386,0.234892 -1.10734,0.234892 z m 0.32437,-1.263939 q 0.35793,0 0.64875,-0.145409 0.29081,-0.145409 0.45859,-0.413856 0.17897,-0.268447 0.17897,-0.637562 v -0.391486 q 0,-0.03356 -0.0224,-0.03356 -0.0112,0 -0.0447,0.02237 -0.13423,0.08948 -0.32438,0.134224 -0.19015,0.04474 -0.40267,0.0783 -0.20133,0.02237 -0.41385,0.0783 -0.51453,0.100667 -0.71586,0.268447 -0.19015,0.167779 -0.19015,0.425041 0,0.279633 0.20133,0.447412 0.21252,0.16778 0.62638,0.16778 z m 6.55457,1.297495 q -0.74941,0 -1.29749,-0.234892 -0.54808,-0.234891 -0.8389,-0.581635 -0.29082,-0.346745 -0.302,-0.659933 0,-0.246077 0.17896,-0.458597 0.17897,-0.223706 0.52571,-0.223706 0.25726,0 0.41386,0.100667 0.15659,0.100668 0.2237,0.190151 0.27963,0.313188 0.57045,0.469782 0.29082,0.145409 0.63756,0.145409 0.36912,0 0.5369,-0.145409 0.16778,-0.145409 0.16778,-0.357929 0,-0.178965 -0.13423,-0.302004 -0.13422,-0.134223 -0.3803,-0.234891 -0.24607,-0.111853 -0.604,-0.223706 -0.36912,-0.123038 -0.72705,-0.257262 -0.34674,-0.145409 -0.62637,-0.346744 -0.26845,-0.212521 -0.42504,-0.503339 -0.1566,-0.302003 -0.1566,-0.727044 0,-0.514524 0.26845,-0.917195 0.27963,-0.413856 0.77178,-0.648747 0.49216,-0.234891 1.12972,-0.234891 0.62638,0 1.08497,0.21252 0.46979,0.201336 0.73823,0.525709 0.26845,0.313189 0.26845,0.671118 0,0.268448 -0.14541,0.447412 -0.14541,0.178965 -0.44741,0.178965 -0.25726,0 -0.43623,-0.111853 -0.16778,-0.111853 -0.26844,-0.223706 -0.0783,-0.100667 -0.19015,-0.201335 -0.10067,-0.100668 -0.25727,-0.16778 -0.14541,-0.0783 -0.39148,-0.0783 -0.33556,0 -0.49216,0.134224 -0.15659,0.134223 -0.15659,0.324374 0,0.201335 0.14541,0.324373 0.15659,0.123039 0.4586,0.234892 0.31319,0.100667 0.78297,0.268447 0.39148,0.134223 0.69349,0.302003 0.31318,0.156594 0.52571,0.357929 0.2237,0.201336 0.33555,0.458598 0.12304,0.257262 0.12304,0.604006 0,0.536894 -0.27963,0.973121 -0.26845,0.425041 -0.78297,0.671118 -0.51452,0.246077 -1.24157,0.246077 z"
         id="text27"
         style="font-weight:bold;font-size:11.1853px;font-family:'National Park';-inkscape-font-specification:'National Park, Bold';fill:#808080;stroke-width:0.175723"
         aria-label="Gestão de filas" /><path
         d="m 88.447226,37.920854 q -1.195746,0 -2.122029,-0.488403 -0.909441,-0.505245 -1.532576,-1.364161 -0.623136,-0.858917 -0.943124,-1.953614 -0.319989,-1.111539 -0.319989,-2.340969 0,-1.80204 0.639977,-3.183043 0.639977,-1.381003 1.751516,-2.172554 1.128381,-0.79155 2.559908,-0.79155 0.707343,0 1.381003,0.202098 0.690501,0.185256 1.246271,0.538928 0.572611,0.353671 0.909441,0.825233 0.33683,0.471562 0.353671,1.044173 0,0.454721 -0.269464,0.774709 -0.252622,0.319989 -0.757867,0.319989 -0.404196,0 -0.639977,-0.202098 -0.235781,-0.202098 -0.404196,-0.437879 -0.185257,-0.370513 -0.538928,-0.67366 -0.33683,-0.319989 -1.077856,-0.319989 -0.875758,0 -1.498893,0.522087 -0.623136,0.505245 -0.976807,1.431527 -0.33683,0.909441 -0.33683,2.155712 0,1.246271 0.33683,2.155712 0.353671,0.8926 0.959965,1.381003 0.623136,0.488404 1.448369,0.488404 0.690501,0 1.12838,-0.353672 0.437879,-0.353671 0.639977,-1.044173 0.117891,-0.370513 0.404196,-0.589452 0.286306,-0.235781 0.67366,-0.235781 0.454721,0 0.774709,0.319988 0.319989,0.319989 0.319989,0.8926 -0.01684,0.589452 -0.33683,1.145222 -0.303147,0.555769 -0.858917,0.993648 -0.555769,0.437879 -1.296795,0.707343 -0.741026,0.252622 -1.616784,0.252622 z m 7.073406,-0.08421 q -0.45472,0 -0.79155,-0.319989 -0.319989,-0.33683 -0.319989,-0.808391 V 26.485476 q 0,-0.45472 0.319989,-0.774709 0.33683,-0.33683 0.79155,-0.33683 0.471562,0 0.791551,0.33683 0.33683,0.319989 0.33683,0.774709 v 4.479839 l -0.505245,-0.202098 q 0.555769,-1.027331 1.296795,-1.515735 0.741026,-0.505245 1.717833,-0.505245 0.909444,0 1.616784,0.404196 0.72418,0.387355 1.12838,1.162064 0.4042,0.774709 0.4042,1.886248 v 4.513522 q 0,0.471561 -0.31999,0.808391 -0.31999,0.319989 -0.79155,0.319989 -0.47156,0 -0.79155,-0.319989 -0.31999,-0.33683 -0.31999,-0.808391 v -4.126168 q 0,-0.79155 -0.43788,-1.263112 -0.421038,-0.488404 -1.178905,-0.488404 -0.572611,0 -0.993649,0.252623 -0.404196,0.235781 -0.623135,0.656818 -0.202098,0.421038 -0.202098,0.926283 v 4.04196 q 0,0.471561 -0.33683,0.808391 -0.319989,0.319989 -0.791551,0.319989 z m 11.553238,0.08421 q -0.77471,0 -1.46521,-0.303147 -0.67366,-0.303147 -1.11154,-0.875757 -0.42104,-0.589453 -0.42104,-1.448369 0,-1.22943 0.79155,-1.919931 0.8084,-0.707343 2.5936,-0.976807 0.57261,-0.08421 1.02733,-0.151574 0.45472,-0.08421 0.72418,-0.235781 0.28631,-0.168415 0.28631,-0.522086 0,-0.252623 -0.15158,-0.454721 -0.13473,-0.202098 -0.40419,-0.303147 -0.26947,-0.11789 -0.67366,-0.11789 -0.52209,0 -0.85892,0.202098 -0.33683,0.202098 -0.55577,0.471562 -0.21894,0.235781 -0.4884,0.387354 -0.26947,0.134732 -0.62314,0.134732 -0.47156,0 -0.75787,-0.235781 -0.26946,-0.252622 -0.26946,-0.67366 0,-0.421037 0.26946,-0.79155 0.26947,-0.387355 0.74103,-0.690502 0.4884,-0.303147 1.12838,-0.471562 0.63998,-0.185256 1.381,-0.185256 1.14523,0 1.91994,0.421037 0.7747,0.404196 1.16206,1.145222 0.40419,0.741026 0.40419,1.700992 v 3.334617 q 0,0.218939 0.0505,0.303147 0.0505,0.06737 0.2021,0.11789 0.26946,0.101049 0.50524,0.33683 0.23578,0.235781 0.23578,0.639977 0,0.45472 -0.33683,0.774709 -0.31999,0.319988 -0.94312,0.303147 -0.6905,-0.01684 -1.07786,-0.33683 -0.37051,-0.33683 -0.47156,-0.875758 l -0.0168,-0.11789 h -0.0505 q -0.45473,0.690501 -1.07786,1.061014 -0.62314,0.353671 -1.66731,0.353671 z m 0.4884,-1.903089 q 0.53893,0 0.97681,-0.218939 0.43788,-0.21894 0.6905,-0.623136 0.26947,-0.404196 0.26947,-0.959965 v -0.589453 q 0,-0.05052 -0.0337,-0.05052 -0.0168,0 -0.0674,0.03368 -0.2021,0.134732 -0.48841,0.202098 -0.2863,0.06737 -0.60629,0.11789 -0.30315,0.03368 -0.62314,0.117891 -0.7747,0.151573 -1.07785,0.404196 -0.28631,0.252622 -0.28631,0.639977 0,0.421037 0.30315,0.67366 0.31999,0.252622 0.94312,0.252622 z m 7.81444,1.818882 q -0.45472,0 -0.79155,-0.319989 -0.31999,-0.33683 -0.31999,-0.808391 v -6.770283 q 0,-0.454721 0.31999,-0.774709 0.33683,-0.33683 0.79155,-0.33683 0.50524,0 0.79155,0.319988 0.30315,0.319989 0.31999,0.757868 l 0.0337,0.757867 -0.4884,-0.03368 q 0.35367,-0.656818 0.79155,-1.077856 0.45472,-0.421037 0.97681,-0.606294 0.52208,-0.202098 1.06101,-0.202098 0.97681,0 1.76836,0.538928 0.79155,0.522087 1.16206,1.498894 l -0.77471,0.185256 q 0.47156,-0.892599 0.97681,-1.364161 0.50524,-0.488404 1.06101,-0.67366 0.57261,-0.185257 1.21259,-0.185257 0.94313,0 1.66731,0.404196 0.72418,0.387355 1.12838,1.162064 0.42104,0.774709 0.42104,1.886248 v 4.513522 q 0,0.471561 -0.33683,0.808391 -0.31999,0.319989 -0.77471,0.319989 -0.47156,0 -0.80839,-0.319989 -0.31999,-0.33683 -0.31999,-0.808391 v -4.193534 q 0,-0.842075 -0.4042,-1.263112 -0.40419,-0.421038 -1.14522,-0.421038 -0.52209,0 -0.8926,0.202098 -0.35367,0.202098 -0.53893,0.589453 -0.18525,0.370513 -0.18525,0.892599 v 4.193534 q 0,0.471561 -0.33683,0.808391 -0.31999,0.319989 -0.79155,0.319989 -0.45472,0 -0.79155,-0.319989 -0.31999,-0.33683 -0.31999,-0.808391 v -4.193534 q 0,-0.808392 -0.4042,-1.246271 -0.4042,-0.437879 -1.16206,-0.437879 -0.52209,0 -0.92629,0.21894 -0.40419,0.202098 -0.62313,0.606294 -0.21894,0.404196 -0.21894,1.01049 v 4.04196 q 0,0.471561 -0.33683,0.808391 -0.31999,0.319989 -0.79155,0.319989 z m 16.87515,0.08421 q -0.77471,0 -1.46521,-0.303147 -0.67366,-0.303147 -1.11154,-0.875757 -0.42104,-0.589453 -0.42104,-1.448369 0,-1.22943 0.79155,-1.919931 0.8084,-0.707343 2.5936,-0.976807 0.57261,-0.08421 1.02733,-0.151574 0.45472,-0.08421 0.72418,-0.235781 0.28631,-0.168415 0.28631,-0.522086 0,-0.252623 -0.15158,-0.454721 -0.13473,-0.202098 -0.40419,-0.303147 -0.26947,-0.11789 -0.67366,-0.11789 -0.52209,0 -0.85892,0.202098 -0.33683,0.202098 -0.55577,0.471562 -0.21894,0.235781 -0.4884,0.387354 -0.26947,0.134732 -0.62314,0.134732 -0.47156,0 -0.75787,-0.235781 -0.26946,-0.252622 -0.26946,-0.67366 0,-0.421037 0.26946,-0.79155 0.26947,-0.387355 0.74103,-0.690502 0.4884,-0.303147 1.12838,-0.471562 0.63998,-0.185256 1.381,-0.185256 1.14523,0 1.91994,0.421037 0.7747,0.404196 1.16206,1.145222 0.40419,0.741026 0.40419,1.700992 v 3.334617 q 0,0.218939 0.0505,0.303147 0.0505,0.06737 0.2021,0.11789 0.26946,0.101049 0.50524,0.33683 0.23578,0.235781 0.23578,0.639977 0,0.45472 -0.33683,0.774709 -0.31999,0.319988 -0.94312,0.303147 -0.6905,-0.01684 -1.07786,-0.33683 -0.37051,-0.33683 -0.47156,-0.875758 l -0.0168,-0.11789 h -0.0505 q -0.45473,0.690501 -1.07786,1.061014 -0.62314,0.353671 -1.66731,0.353671 z m 0.4884,-1.903089 q 0.53893,0 0.97681,-0.218939 0.43788,-0.21894 0.6905,-0.623136 0.26947,-0.404196 0.26947,-0.959965 v -0.589453 q 0,-0.05052 -0.0337,-0.05052 -0.0168,0 -0.0674,0.03368 -0.2021,0.134732 -0.48841,0.202098 -0.2863,0.06737 -0.60629,0.11789 -0.30315,0.03368 -0.62314,0.117891 -0.7747,0.151573 -1.07785,0.404196 -0.28631,0.252622 -0.28631,0.639977 0,0.421037 0.30315,0.67366 0.31999,0.252622 0.94312,0.252622 z"
         id="text1"
         style="font-weight:bold;font-size:16.8415px;font-family:'National Park';-inkscape-font-specification:'National Park, Bold';fill:#1c6db0;stroke-width:0.264583"
         aria-label="Chama" /></g></g></svg>
